<svg xmlns="http://www.w3.org/2000/svg" viewBox="0 0 1600 880" width="1600" height="880" font-family="Segoe UI, Helvetica, Arial, sans-serif">
<rect width="1600" height="880" fill="#ffffff"/>
<rect x="20" y="180" width="1560" height="460" fill="#fafafa" rx="6"/>
<defs>
  <marker id="arr" viewBox="0 0 10 10" refX="9" refY="5" markerWidth="8" markerHeight="8" orient="auto-start-reverse">
    <path d="M0 0 L10 5 L0 10 z" fill="#334155"/>
  </marker>
  <marker id="arrSoft" viewBox="0 0 10 10" refX="9" refY="5" markerWidth="8" markerHeight="8" orient="auto-start-reverse">
    <path d="M0 0 L10 5 L0 10 z" fill="#94a3b8"/>
  </marker>
  <marker id="arrFound" viewBox="0 0 10 10" refX="9" refY="5" markerWidth="8" markerHeight="8" orient="auto-start-reverse">
    <path d="M0 0 L10 5 L0 10 z" fill="#10b981"/>
  </marker>
  <filter id="softShadow" x="-10%" y="-10%" width="120%" height="130%">
    <feGaussianBlur in="SourceAlpha" stdDeviation="3"/>
    <feOffset dx="0" dy="2" result="offsetblur"/>
    <feComponentTransfer><feFuncA type="linear" slope="0.18"/></feComponentTransfer>
    <feMerge><feMergeNode/><feMergeNode in="SourceGraphic"/></feMerge>
  </filter>
</defs>
<text x="800" y="60" text-anchor="middle" font-size="30" font-weight="700" fill="#0f172a">Customer CRM Pipeline — How These 4 Skills Work Together</text>
<text x="800" y="92" text-anchor="middle" font-size="16" fill="#475569">M365 + Git activity, captured into daily logs, pushed to MSX (Dynamics 365)</text>
<text x="60" y="178" font-size="12" font-weight="700" fill="#64748b" letter-spacing="1.4">DATA SOURCES</text>
<text x="60" y="598" font-size="12" font-weight="700" fill="#047857" letter-spacing="1.4">FOUNDATION (used by every skill)</text>
<rect x="60" y="200" width="220" height="64" rx="10" fill="#f8fafc" stroke="#cbd5e1" stroke-width="1" filter="url(#softShadow)"/>
<g transform="translate(70 204) scale(0.85)">
<g>
  <rect x="2" y="6" width="52" height="46" rx="6" ry="6" fill="#fff" stroke="#0078D4" stroke-width="2"/>
  <rect x="2" y="6" width="52" height="14" rx="6" ry="6" fill="#0078D4"/>
  <rect x="2" y="14" width="52" height="6" fill="#0078D4"/>
  <rect x="12" y="2" width="4" height="12" rx="1.5" fill="#0078D4"/>
  <rect x="40" y="2" width="4" height="12" rx="1.5" fill="#0078D4"/>
  <text x="28" y="44" font-family="Segoe UI, Helvetica, Arial" font-size="22"
        font-weight="700" fill="#0078D4" text-anchor="middle">31</text>
</g></g>
<text x="130" y="237.0" font-size="15" font-weight="600" fill="#1e293b">M365 Calendar</text>
<rect x="60" y="280" width="220" height="64" rx="10" fill="#f8fafc" stroke="#cbd5e1" stroke-width="1" filter="url(#softShadow)"/>
<g transform="translate(70 284) scale(0.85)">
<g>
  <rect x="0" y="0" width="56" height="56" rx="8" ry="8" fill="#0078D4"/>
  <rect x="6" y="14" width="34" height="28" fill="#fff"/>
  <path d="M6 14 L23 32 L40 14" stroke="#0078D4" stroke-width="2.4" fill="none"/>
  <text x="46" y="44" font-family="Segoe UI, Helvetica, Arial" font-size="20"
        font-weight="700" fill="#fff" text-anchor="middle">O</text>
</g></g>
<text x="130" y="317.0" font-size="15" font-weight="600" fill="#1e293b">Sent Emails (Outlook)</text>
<rect x="60" y="360" width="220" height="64" rx="10" fill="#f8fafc" stroke="#cbd5e1" stroke-width="1" filter="url(#softShadow)"/>
<g transform="translate(70 364) scale(0.85)">
<g>
  <rect x="0" y="0" width="56" height="56" rx="8" ry="8" fill="#4B53BC"/>
  <circle cx="40" cy="20" r="6" fill="#fff" opacity="0.9"/>
  <path d="M30 38 a10 10 0 0 1 20 0 v6 h-20 z" fill="#fff" opacity="0.9"/>
  <rect x="6" y="14" width="22" height="28" rx="2" fill="#fff"/>
  <text x="17" y="36" font-family="Segoe UI, Helvetica, Arial" font-size="22"
        font-weight="700" fill="#4B53BC" text-anchor="middle">T</text>
</g></g>
<text x="130" y="397.0" font-size="15" font-weight="600" fill="#1e293b">Teams Chat (SSP)</text>
<rect x="60" y="440" width="220" height="64" rx="10" fill="#f8fafc" stroke="#cbd5e1" stroke-width="1" filter="url(#softShadow)"/>
<g transform="translate(70 444) scale(0.85)">
<g>
  <circle cx="14" cy="14" r="6" fill="#F05032"/>
  <circle cx="14" cy="42" r="6" fill="#F05032"/>
  <circle cx="42" cy="28" r="6" fill="#F05032"/>
  <path d="M14 20 L14 36" stroke="#F05032" stroke-width="3" fill="none"/>
  <path d="M14 28 C 24 28, 32 28, 36 28" stroke="#F05032" stroke-width="3" fill="none"/>
</g></g>
<text x="130" y="477.0" font-size="15" font-weight="600" fill="#1e293b">Git Repos</text>
<rect x="340" y="210" width="320" height="150" rx="14" fill="#eff6ff" stroke="#2563eb" stroke-width="2" filter="url(#softShadow)"/>
<text x="358" y="246" font-size="20" font-weight="700" fill="#1e3a8a">/daily-activity-log</text>
<text x="358" y="280" font-size="14" fill="#1f2937">Aggregates calendar, email, Teams chat,</text>
<text x="358" y="302" font-size="14" fill="#1f2937">and git commits into one activity-log.md</text>
<text x="358" y="324" font-size="14" fill="#1f2937">per project — classified by CRM category.</text>
<rect x="1060" y="210" width="320" height="150" rx="14" fill="#eff6ff" stroke="#2563eb" stroke-width="2" filter="url(#softShadow)"/>
<text x="1078" y="246" font-size="20" font-weight="700" fill="#1e3a8a">/crm-activity-sync</text>
<text x="1078" y="280" font-size="14" fill="#1f2937">Reads activity-log.md and creates</text>
<text x="1078" y="302" font-size="14" fill="#1f2937">milestone tasks in MSX. Idempotent,</text>
<text x="1078" y="324" font-size="14" fill="#1f2937">auto-joins deal teams.</text>
<rect x="1060" y="470" width="320" height="150" rx="14" fill="#f5f3ff" stroke="#7c3aed" stroke-width="2" filter="url(#softShadow)"/>
<g transform="translate(1074 484) scale(0.8)">
<g>
  <defs>
    <linearGradient id="dynGrad" x1="0" y1="0" x2="1" y2="1">
      <stop offset="0%" stop-color="#0B5394"/>
      <stop offset="100%" stop-color="#002050"/>
    </linearGradient>
  </defs>
  <rect x="0" y="0" width="56" height="56" rx="8" ry="8" fill="url(#dynGrad)"/>
  <path d="M14 12 L14 44 L30 44 C 42 44, 46 36, 46 28 C 46 20, 42 12, 30 12 Z"
        fill="#fff"/>
  <path d="M22 20 L22 36 L30 36 C 36 36, 38 32, 38 28 C 38 24, 36 20, 30 20 Z"
        fill="#0B5394"/>
</g></g>
<text x="1136" y="506" font-size="20" font-weight="700" fill="#5b21b6">/msx-crm</text>
<text x="1078" y="540" font-size="14" fill="#1f2937">Backend tool layer (Node CLI).</text>
<text x="1078" y="562" font-size="14" fill="#1f2937">Query accounts, opportunities,</text>
<text x="1078" y="584" font-size="14" fill="#1f2937">milestones, tasks, deal teams.</text>
<rect x="60" y="620" width="320" height="150" rx="14" fill="#ecfdf5" stroke="#10b981" stroke-width="2" filter="url(#softShadow)"/>
<text x="78" y="656" font-size="20" font-weight="700" fill="#065f46">/customer-repo</text>
<text x="78" y="690" font-size="14" fill="#1f2937">Scaffolds the per-customer folder</text>
<text x="78" y="712" font-size="14" fill="#1f2937">structure that every other skill</text>
<text x="78" y="734" font-size="14" fill="#1f2937">reads &amp; writes inside.</text>
<rect x="750" y="460" width="220" height="80" rx="10" fill="#fffbeb" stroke="#d97706" stroke-width="2" filter="url(#softShadow)"/>
<text x="860.0" y="492" text-anchor="middle" font-size="18" font-weight="700" fill="#78350f">activity-log.md</text>
<text x="860.0" y="516" text-anchor="middle" font-size="13" fill="#92400e">(per customer project)</text>
<rect x="1100" y="700" width="220" height="110" rx="20" fill="#fdf2f8" stroke="#db2777" stroke-width="2" filter="url(#softShadow)"/>
<g transform="translate(1114 722) scale(1.1)">
<g>
  <defs>
    <linearGradient id="dynGrad" x1="0" y1="0" x2="1" y2="1">
      <stop offset="0%" stop-color="#0B5394"/>
      <stop offset="100%" stop-color="#002050"/>
    </linearGradient>
  </defs>
  <rect x="0" y="0" width="56" height="56" rx="8" ry="8" fill="url(#dynGrad)"/>
  <path d="M14 12 L14 44 L30 44 C 42 44, 46 36, 46 28 C 46 20, 42 12, 30 12 Z"
        fill="#fff"/>
  <path d="M22 20 L22 36 L30 36 C 36 36, 38 32, 38 28 C 38 24, 36 20, 30 20 Z"
        fill="#0B5394"/>
</g></g>
<text x="1304" y="738" text-anchor="end" font-size="20" font-weight="700" fill="#9d174d">MSX</text>
<text x="1304" y="762" text-anchor="end" font-size="12" fill="#9d174d">Microsoft Sales</text>
<text x="1304" y="778" text-anchor="end" font-size="12" fill="#9d174d">Experience</text>
<text x="1304" y="796" text-anchor="end" font-size="11" fill="#be185d" font-style="italic">(Dynamics 365)</text>
<path d="M280 232 C 310.0 232, 310.0 285, 336 285" stroke="#94a3b8" stroke-width="2" fill="none" marker-end="url(#arrSoft)"/>
<path d="M280 312 C 310.0 312, 310.0 285, 336 285" stroke="#94a3b8" stroke-width="2" fill="none" marker-end="url(#arrSoft)"/>
<path d="M280 392 C 310.0 392, 310.0 285, 336 285" stroke="#94a3b8" stroke-width="2" fill="none" marker-end="url(#arrSoft)"/>
<path d="M280 472 C 310.0 472, 310.0 285, 336 285" stroke="#94a3b8" stroke-width="2" fill="none" marker-end="url(#arrSoft)"/>
<path d="M500 360 L810 460" stroke="#334155" stroke-width="3" fill="none" marker-end="url(#arr)"/>
<text x="580" y="390" font-size="13" font-weight="600" fill="#475569">writes</text>
<path d="M970 500 L1060 330" stroke="#334155" stroke-width="3" fill="none" marker-end="url(#arr)"/>
<text x="984" y="490" font-size="13" font-weight="600" fill="#475569">reads</text>
<path d="M1220 360 L1220 470" stroke="#334155" stroke-width="3" fill="none" marker-end="url(#arr)"/>
<text x="1232" y="388" font-size="13" font-weight="600" fill="#475569">uses tools</text>
<path d="M1220 620 L1210 700" stroke="#334155" stroke-width="3" fill="none" marker-end="url(#arr)"/>
<text x="1234" y="648" font-size="13" font-weight="600" fill="#475569">OData / API</text>
<path d="M380 660 L400 360" stroke="#10b981" stroke-width="2" fill="none" marker-end="url(#arrFound)" stroke-dasharray="6,5"/>
<path d="M380 695 L750 500" stroke="#10b981" stroke-width="2" fill="none" marker-end="url(#arrFound)" stroke-dasharray="6,5"/>
<text x="60" y="816" font-size="11" font-weight="700" fill="#64748b" letter-spacing="1.4">LEGEND</text>
<rect x="60" y="826" width="22" height="14" rx="3" fill="#eff6ff" stroke="#2563eb" stroke-width="1.4"/>
<text x="90" y="837" font-size="13" fill="#1f2937">Skill (LLM-driven)</text>
<rect x="290" y="826" width="22" height="14" rx="3" fill="#f5f3ff" stroke="#7c3aed" stroke-width="1.4"/>
<text x="320" y="837" font-size="13" fill="#1f2937">Backend tool layer</text>
<rect x="520" y="826" width="22" height="14" rx="3" fill="#ecfdf5" stroke="#10b981" stroke-width="1.4"/>
<text x="550" y="837" font-size="13" fill="#1f2937">Foundation / scaffold</text>
<rect x="750" y="826" width="22" height="14" rx="3" fill="#fffbeb" stroke="#d97706" stroke-width="1.4"/>
<text x="780" y="837" font-size="13" fill="#1f2937">File on disk</text>
<rect x="980" y="826" width="22" height="14" rx="3" fill="#fdf2f8" stroke="#db2777" stroke-width="1.4"/>
<text x="1010" y="837" font-size="13" fill="#1f2937">External system</text>
<rect x="1210" y="826" width="22" height="14" rx="3" fill="#f8fafc" stroke="#cbd5e1" stroke-width="1.4"/>
<text x="1240" y="837" font-size="13" fill="#1f2937">Data source</text>
</svg>